<?xml version="1.0" encoding="UTF-8" standalone="no"?>
<!DOCTYPE svg PUBLIC "-//W3C//DTD SVG 1.1//EN" "http://www.w3.org/Graphics/SVG/1.1/DTD/svg11.dtd">
<!-- 由 Microsoft Visio, SVG Export 生成 pie.svg sun -->
<svg xmlns="http://www.w3.org/2000/svg" xmlns:xlink="http://www.w3.org/1999/xlink" xmlns:ev="http://www.w3.org/2001/xml-events"
		xmlns:v="http://schemas.microsoft.com/visio/2003/SVGExtensions/" width="6.11778in" height="5.32778in"
		viewBox="0 0 440.48 383.6" xml:space="preserve" color-interpolation-filters="sRGB" class="st14">
	<v:documentProperties v:langID="2052" v:viewMarkup="false"/>

	<style type="text/css">
	<![CDATA[
		.st1 {fill:#ffffff;stroke:none;stroke-linecap:butt;stroke-width:1}
		.st2 {fill:#092436;fill-opacity:0.5;stroke:#092436;stroke-linecap:butt;stroke-opacity:0.5;stroke-width:1}
		.st3 {fill:#4c2604;fill-opacity:0.5;stroke:#4c2604;stroke-linecap:butt;stroke-opacity:0.5;stroke-width:1}
		.st4 {fill:#0d300d;fill-opacity:0.5;stroke:#0d300d;stroke-linecap:butt;stroke-opacity:0.5;stroke-width:1}
		.st5 {fill:#1f77b4;stroke:none;stroke-linecap:butt;stroke-width:1}
		.st6 {fill:#ff7f0e;stroke:none;stroke-linecap:butt;stroke-width:1}
		.st7 {fill:#2ca02c;stroke:none;stroke-linecap:butt;stroke-width:1}
		.st8 {fill:#000000;stroke:none;stroke-linecap:butt;stroke-width:0.0015625}
		.st9 {fill:#f6bb42;stroke:none;stroke-linecap:butt;stroke-width:0.146484}
		.st10 {fill:#ffce54;stroke:none;stroke-linecap:butt;stroke-width:0.146484}
		.st11 {fill:#2d527c;stroke:none;stroke-linecap:butt;stroke-width:0.146484}
		.st12 {fill:#cee8fa;stroke:none;stroke-linecap:butt;stroke-width:0.146484}
		.st13 {fill:#d4237a;stroke:none;stroke-linecap:butt;stroke-width:0.146484}
		.st14 {fill:none;fill-rule:evenodd;font-size:12px;overflow:visible;stroke-linecap:square;stroke-miterlimit:3}
	]]>
	</style>

	<g v:mID="0" v:index="1" v:groupContext="foregroundPage">
		<title>sun</title>
		<v:pageProperties v:drawingScale="1" v:pageScale="1" v:drawingUnits="19" v:shadowOffsetX="9" v:shadowOffsetY="-9"/>
		<v:layer v:name="连接线" v:index="0"/>
		<g id="group1-1" transform="translate(19,-19)" v:mID="1" v:groupContext="group">
			<title>工作表.1</title>
			<g id="group2-2" v:mID="2" v:groupContext="group">
				<title>figure_1</title>
				<g id="shape3-3" v:mID="3" v:groupContext="shape">
					<title>工作表.3</title>
					<rect x="0" y="38" width="402.48" height="345.6" class="st1"/>
				</g>
				<g id="group4-5" transform="translate(68.8177,-38.2906)" v:mID="4" v:groupContext="group">
					<title>axes_1</title>
					<g id="shape5-6" v:mID="5" v:groupContext="shape" transform="translate(0.23606,-131.917)">
						<title>工作表.5</title>
						<path d="M259.19 383.6 C259.19 349.35 245.61 316.45 221.45 292.18 C197.29 267.9 164.46 254.16 130.2 254 C95.95
									 253.84 62.99 267.26 38.6 291.31 C14.21 315.36 0.32 348.13 0 382.38 L129.59 383.6 L259.19 383.6
									 Z" class="st2"/>
					</g>
					<g id="shape6-8" v:mID="6" v:groupContext="shape" transform="translate(1.8705E-12,-0.0444935)">
						<title>工作表.6</title>
						<path d="M0.24 250.51 C0 275.55 7.03 300.14 20.47 321.27 C33.91 342.41 53.2 359.2 75.98 369.61 C98.76 380.02
									 124.08 383.6 148.86 379.92 C173.63 376.25 196.82 365.46 215.6 348.89 L129.83 251.73 L0.24 250.51
									 Z" class="st3"/>
					</g>
					<g id="shape7-10" v:mID="7" v:groupContext="shape" transform="translate(129.83,-34.757)">
						<title>工作表.7</title>
						<path d="M85.77 383.6 C99.54 371.44 110.58 356.49 118.13 339.73 C125.69 322.98 129.6 304.82 129.6 286.44
									 L0 286.44 L85.77 383.6 Z" class="st4"/>
					</g>
					<g id="shape8-12" v:mID="8" v:groupContext="shape" transform="translate(2.82806,-134.509)">
						<title>工作表.8</title>
						<path d="M259.19 383.6 C259.19 349.35 245.61 316.45 221.45 292.18 C197.29 267.9 164.46 254.16 130.2 254 C95.95
									 253.84 62.99 267.26 38.6 291.31 C14.21 315.36 0.32 348.13 0 382.38 L129.59 383.6 L259.19 383.6
									 Z" class="st5"/>
					</g>
					<g id="shape9-14" v:mID="9" v:groupContext="shape" transform="translate(2.592,-2.63649)">
						<title>工作表.9</title>
						<path d="M0.24 250.51 C0 275.55 7.03 300.14 20.47 321.27 C33.91 342.41 53.2 359.2 75.98 369.61 C98.76 380.02
									 124.08 383.6 148.86 379.92 C173.63 376.25 196.82 365.46 215.6 348.89 L129.83 251.73 L0.24 250.51
									 Z" class="st6"/>
					</g>
					<g id="shape10-16" v:mID="10" v:groupContext="shape" transform="translate(132.422,-37.349)">
						<title>工作表.10</title>
						<path d="M85.77 383.6 C99.54 371.44 110.58 356.49 118.13 339.73 C125.69 322.98 129.6 304.82 129.6 286.44
									 L0 286.44 L85.77 383.6 Z" class="st7"/>
					</g>
					<g id="group11-18" transform="translate(133.753,-272.229)" v:mID="11" v:groupContext="group">
						<title>工作表.11</title>
						<g id="shape12-19" v:mID="12" v:groupContext="shape"
								transform="translate(-5.64548E-14,757.698) scale(1,-1)">
							<title>DejaVuSans-53</title>
							<path d="M4.69 383.23 L4.69 382.27 C4.32 382.45 3.97 382.58 3.63 382.67 C3.3 382.76 2.98 382.8 2.67 382.8
										 C2.13 382.8 1.72 382.7 1.43 382.49 C1.14 382.28 0.99 381.98 0.99 381.6 C0.99 381.28 1.09
										 381.03 1.28 380.87 C1.47 380.7 1.84 380.57 2.38 380.47 L2.98 380.35 C3.71 380.21 4.26 379.96
										 4.61 379.61 C4.96 379.25 5.13 378.78 5.13 378.19 C5.13 377.48 4.89 376.95 4.42 376.58 C3.95
										 376.22 3.25 376.04 2.34 376.04 C1.99 376.04 1.63 376.08 1.24 376.15 C0.85 376.23 0.45 376.35
										 0.03 376.5 L0.03 377.52 C0.43 377.29 0.82 377.12 1.21 377.01 C1.59 376.89 1.97 376.84 2.34
										 376.84 C2.9 376.84 3.34 376.95 3.64 377.17 C3.95 377.39 4.1 377.71 4.1 378.12 C4.1 378.47
										 3.99 378.75 3.77 378.96 C3.55 379.16 3.19 379.31 2.69 379.41 L2.09 379.53 C1.35 379.67 0.82
										 379.9 0.49 380.22 C0.16 380.53 0 380.96 0 381.52 C0 382.17 0.23 382.67 0.68 383.04 C1.14
										 383.41 1.76 383.6 2.56 383.6 C2.9 383.6 3.25 383.57 3.6 383.51 C3.96 383.44 4.32 383.35
										 4.69 383.23 Z" class="st8"/>
						</g>
						<g id="shape13-21" v:mID="13" v:groupContext="shape" transform="translate(6.53828,759.52) scale(1,-1)">
							<title>DejaVuSans-75</title>
							<path d="M0 380.16 L0 383.47 L0.9 383.47 L0.9 380.19 C0.9 379.67 1 379.29 1.2 379.03 C1.4 378.77 1.71
										 378.64 2.11 378.64 C2.59 378.64 2.98 378.79 3.26 379.1 C3.54 379.41 3.68 379.83 3.68 380.37
										 L3.68 383.47 L4.58 383.47 L4.58 378 L3.68 378 L3.68 378.84 C3.46 378.51 3.21 378.26 2.92
										 378.1 C2.63 377.94 2.3 377.86 1.92 377.86 C1.29 377.86 0.81 378.05 0.49 378.44 C0.16 378.83
										 0 379.41 0 380.16 Z" class="st8"/>
						</g>
						<g id="shape14-23" v:mID="14" v:groupContext="shape" transform="translate(12.934,759.52) scale(1,-1)">
							<title>DejaVuSans-6e</title>
							<path d="M4.58 381.3 L4.58 378 L3.68 378 L3.68 381.27 C3.68 381.79 3.58 382.18 3.38 382.43 C3.18 382.69
										 2.87 382.82 2.47 382.82 C1.99 382.82 1.6 382.66 1.32 382.35 C1.04 382.05 0.9 381.63 0.9
										 381.09 L0.9 378 L0 378 L0 383.47 L0.9 383.47 L0.9 382.62 C1.12 382.95 1.37 383.19 1.66 383.36
										 C1.95 383.52 2.29 383.6 2.67 383.6 C3.3 383.6 3.77 383.41 4.1 383.02 C4.42 382.63 4.58 382.06
										 4.58 381.3 Z" class="st8"/>
						</g>
						<g id="shape15-25" v:mID="15" v:groupContext="shape" transform="translate(19.3062,757.522) scale(1,-1)">
							<title>DejaVuSans-6c</title>
							<path d="M0 383.6 L0.9 383.6 L0.9 376 L0 376 L0 383.6 Z" class="st8"/>
						</g>
						<g id="shape16-27" v:mID="16" v:groupContext="shape" transform="translate(22.0846,757.522) scale(1,-1)">
							<title>DejaVuSans-69</title>
							<path d="M0 381.47 L0.9 381.47 L0.9 376 L0 376 L0 381.47 ZM0 383.6 L0.9 383.6 L0.9 382.46 L0 382.46 L0
										 383.6 Z" class="st8"/>
						</g>
						<g id="shape17-29" v:mID="17" v:groupContext="shape" transform="translate(24.4723,759.52) scale(1,-1)">
							<title>DejaVuSans-67</title>
							<path d="M3.99 380.8 C3.99 381.45 3.85 381.95 3.59 382.31 C3.32 382.67 2.94 382.85 2.46 382.85 C1.98
										 382.85 1.6 382.67 1.33 382.31 C1.06 381.95 0.93 381.45 0.93 380.8 C0.93 380.15 1.06 379.65
										 1.33 379.29 C1.6 378.93 1.98 378.75 2.46 378.75 C2.94 378.75 3.32 378.93 3.59 379.29 C3.85
										 379.65 3.99 380.15 3.99 380.8 ZM4.89 378.68 C4.89 377.75 4.68 377.06 4.27 376.6 C3.85 376.15
										 3.22 375.92 2.37 375.92 C2.05 375.92 1.76 375.94 1.48 375.99 C1.19 376.04 0.92 376.11 0.66
										 376.21 L0.66 377.08 C0.92 376.94 1.18 376.83 1.44 376.77 C1.7 376.7 1.96 376.66 2.23 376.66
										 C2.82 376.66 3.26 376.82 3.55 377.12 C3.84 377.43 3.99 377.9 3.99 378.52 L3.99 378.96 C3.8
										 378.64 3.57 378.4 3.28 378.24 C2.99 378.08 2.64 378 2.24 378 C1.57 378 1.03 378.26 0.62
										 378.77 C0.21 379.28 0 379.95 0 380.8 C0 381.64 0.21 382.32 0.62 382.83 C1.03 383.34 1.57
										 383.6 2.24 383.6 C2.64 383.6 2.99 383.52 3.28 383.36 C3.57 383.2 3.8 382.96 3.99 382.64
										 L3.99 383.47 L4.89 383.47 L4.89 378.68 Z" class="st8"/>
						</g>
						<g id="shape18-31" v:mID="18" v:groupContext="shape" transform="translate(31.1762,757.522) scale(1,-1)">
							<title>DejaVuSans-68</title>
							<path d="M4.58 379.3 L4.58 376 L3.68 376 L3.68 379.27 C3.68 379.79 3.58 380.18 3.38 380.43 C3.18 380.69
										 2.87 380.82 2.47 380.82 C1.99 380.82 1.6 380.67 1.32 380.36 C1.04 380.05 0.9 379.63 0.9
										 379.09 L0.9 376 L0 376 L0 383.6 L0.9 383.6 L0.9 380.62 C1.12 380.95 1.37 381.2 1.66 381.36
										 C1.95 381.52 2.29 381.6 2.67 381.6 C3.3 381.6 3.77 381.41 4.1 381.02 C4.42 380.63 4.58 380.06
										 4.58 379.3 Z" class="st8"/>
						</g>
						<g id="shape19-33" v:mID="19" v:groupContext="shape" transform="translate(36.875,758.098) scale(1,-1)">
							<title>DejaVuSans-74</title>
							<path d="M1.56 383.6 L1.56 382.05 L3.41 382.05 L3.41 381.35 L1.56 381.35 L1.56 378.38 C1.56 377.93 1.62
										 377.65 1.75 377.52 C1.87 377.39 2.12 377.33 2.49 377.33 L3.41 377.33 L3.41 376.58 L2.49
										 376.58 C1.8 376.58 1.32 376.71 1.05 376.97 C0.79 377.23 0.66 377.7 0.66 378.38 L0.66 381.35
										 L0 381.35 L0 382.05 L0.66 382.05 L0.66 383.6 L1.56 383.6 Z" class="st8"/>
						</g>
					</g>
					<g id="group20-35" transform="translate(117.394,-209.367)" v:mID="20" v:groupContext="group">
						<title>工作表.20</title>
						<g id="shape21-36" v:mID="21" v:groupContext="shape" transform="translate(-4.996E-16,759.767) scale(1,-1)">
							<title>DejaVuSans-34</title>
							<path d="M3.29 382.74 L0.8 378.85 L3.29 378.85 L3.29 382.74 ZM3.03 383.6 L4.27 383.6 L4.27 378.85 L5.31
										 378.85 L5.31 378.03 L4.27 378.03 L4.27 376.31 L3.29 376.31 L3.29 378.03 L0 378.03 L0 378.98
										 L3.03 383.6 Z" class="st8"/>
						</g>
						<g id="shape22-38" v:mID="22" v:groupContext="shape" transform="translate(6.50293,759.636) scale(1,-1)">
							<title>DejaVuSans-39</title>
							<path d="M0.47 376.33 L0.47 377.23 C0.72 377.11 0.97 377.02 1.22 376.96 C1.47 376.9 1.72 376.87 1.97
										 376.87 C2.62 376.87 3.12 377.09 3.46 377.52 C3.8 377.96 4 378.63 4.05 379.52 C3.86 379.24
										 3.62 379.02 3.33 378.87 C3.04 378.72 2.72 378.65 2.37 378.65 C1.64 378.65 1.06 378.87 0.64
										 379.31 C0.21 379.75 0 380.35 0 381.12 C0 381.87 0.22 382.47 0.66 382.92 C1.11 383.37 1.7
										 383.6 2.43 383.6 C3.28 383.6 3.92 383.28 4.36 382.63 C4.81 381.98 5.03 381.05 5.03 379.82
										 C5.03 378.67 4.76 377.75 4.21 377.06 C3.67 376.38 2.93 376.04 2.01 376.04 C1.76 376.04 1.51
										 376.06 1.26 376.11 C1.01 376.16 0.74 376.23 0.47 376.33 ZM2.43 379.42 C2.87 379.42 3.22
										 379.57 3.48 379.87 C3.74 380.18 3.87 380.59 3.87 381.12 C3.87 381.64 3.74 382.06 3.48 382.36
										 C3.22 382.67 2.87 382.82 2.43 382.82 C1.99 382.82 1.64 382.67 1.38 382.36 C1.12 382.06 0.99
										 381.64 0.99 381.12 C0.99 380.59 1.12 380.18 1.38 379.87 C1.64 379.57 1.99 379.42 2.43 379.42
										 Z" class="st8"/>
						</g>
						<g id="shape23-40" v:mID="23" v:groupContext="shape" transform="translate(13.3043,765.817) scale(1,-1)">
							<title>DejaVuSans-2e</title>
							<path d="M0 383.6 L1.03 383.6 L1.03 382.36 L0 382.36 L0 383.6 Z" class="st8"/>
						</g>
						<g id="shape24-42" v:mID="24" v:groupContext="shape" transform="translate(16.0439,759.636) scale(1,-1)">
							<title>工作表.24</title>
							<path d="M0.47 376.33 L0.47 377.23 C0.72 377.11 0.97 377.02 1.22 376.96 C1.47 376.9 1.72 376.87 1.97
										 376.87 C2.62 376.87 3.12 377.09 3.46 377.52 C3.8 377.96 4 378.63 4.05 379.52 C3.86 379.24
										 3.62 379.02 3.33 378.87 C3.04 378.72 2.72 378.65 2.37 378.65 C1.64 378.65 1.06 378.87 0.64
										 379.31 C0.21 379.75 0 380.35 0 381.12 C0 381.87 0.22 382.47 0.66 382.92 C1.11 383.37 1.7
										 383.6 2.43 383.6 C3.28 383.6 3.92 383.28 4.36 382.63 C4.81 381.98 5.03 381.05 5.03 379.82
										 C5.03 378.67 4.76 377.75 4.21 377.06 C3.67 376.38 2.93 376.04 2.01 376.04 C1.76 376.04 1.51
										 376.06 1.26 376.11 C1.01 376.16 0.74 376.23 0.47 376.33 ZM2.43 379.42 C2.87 379.42 3.22
										 379.57 3.48 379.87 C3.74 380.18 3.87 380.59 3.87 381.12 C3.87 381.64 3.74 382.06 3.48 382.36
										 C3.22 382.67 2.87 382.82 2.43 382.82 C1.99 382.82 1.64 382.67 1.38 382.36 C1.12 382.06 0.99
										 381.64 0.99 381.12 C0.99 380.59 1.12 380.18 1.38 379.87 C1.64 379.57 1.99 379.42 2.43 379.42
										 Z" class="st8"/>
						</g>
						<g id="shape25-44" v:mID="25" v:groupContext="shape" transform="translate(22.3281,759.636) scale(1,-1)">
							<title>DejaVuSans-25</title>
							<path d="M6.72 379.39 C6.44 379.39 6.21 379.27 6.05 379.03 C5.89 378.78 5.81 378.45 5.81 378.02 C5.81
										 377.6 5.89 377.26 6.05 377.02 C6.21 376.78 6.44 376.66 6.72 376.66 C7 376.66 7.21 376.78
										 7.37 377.02 C7.54 377.26 7.62 377.6 7.62 378.02 C7.62 378.45 7.54 378.78 7.37 379.02 C7.21
										 379.26 7 379.39 6.72 379.39 ZM6.72 380.01 C7.23 380.01 7.64 379.83 7.94 379.47 C8.25 379.11
										 8.4 378.63 8.4 378.02 C8.4 377.41 8.25 376.93 7.94 376.57 C7.64 376.21 7.23 376.04 6.72
										 376.04 C6.2 376.04 5.79 376.21 5.48 376.57 C5.18 376.93 5.03 377.41 5.03 378.02 C5.03 378.63
										 5.18 379.12 5.49 379.47 C5.79 379.83 6.2 380.01 6.72 380.01 ZM1.68 382.98 C1.4 382.98 1.18
										 382.86 1.02 382.62 C0.86 382.37 0.78 382.04 0.78 381.62 C0.78 381.19 0.86 380.85 1.02 380.61
										 C1.17 380.37 1.4 380.25 1.68 380.25 C1.96 380.25 2.18 380.37 2.35 380.61 C2.51 380.85 2.59
										 381.19 2.59 381.62 C2.59 382.04 2.51 382.37 2.34 382.61 C2.18 382.86 1.96 382.98 1.68 382.98
										 ZM6.09 383.6 L6.87 383.6 L2.31 376.04 L1.53 376.04 L6.09 383.6 ZM1.68 383.6 C2.19 383.6
										 2.6 383.42 2.91 383.07 C3.22 382.71 3.37 382.23 3.37 381.62 C3.37 381 3.22 380.52 2.91 380.16
										 C2.61 379.81 2.2 379.63 1.68 379.63 C1.16 379.63 0.75 379.81 0.45 380.16 C0.15 380.52 0
										 381.01 0 381.62 C0 382.22 0.15 382.71 0.45 383.06 C0.76 383.42 1.17 383.6 1.68 383.6 Z"
									class="st8"/>
						</g>
					</g>
					<g id="group26-46" transform="translate(11.6672,0)" v:mID="26" v:groupContext="group">
						<title>工作表.26</title>
						<g id="shape27-47" v:mID="27" v:groupContext="shape" transform="translate(4.4964E-15,757.83) scale(1,-1)">
							<title>DejaVuSans-50</title>
							<path d="M0.99 382.79 L0.99 380.05 L2.23 380.05 C2.69 380.05 3.04 380.17 3.29 380.41 C3.54 380.64 3.67
										 380.98 3.67 381.42 C3.67 381.86 3.54 382.2 3.29 382.43 C3.04 382.67 2.69 382.79 2.23 382.79
										 L0.99 382.79 ZM0 383.6 L2.23 383.6 C3.04 383.6 3.66 383.42 4.08 383.05 C4.5 382.68 4.71
										 382.13 4.71 381.42 C4.71 380.7 4.5 380.16 4.08 379.79 C3.66 379.42 3.04 379.24 2.23 379.24
										 L0.99 379.24 L0.99 376.31 L0 376.31 L0 383.6 Z" class="st8"/>
						</g>
						<g id="shape28-49" v:mID="28" v:groupContext="shape" transform="translate(5.78184,759.52) scale(1,-1)">
							<title>DejaVuSans-72</title>
							<path d="M3.2 382.63 C3.1 382.69 2.99 382.73 2.87 382.76 C2.75 382.79 2.62 382.8 2.48 382.8 C1.97 382.8
										 1.58 382.63 1.31 382.3 C1.04 381.97 0.9 381.5 0.9 380.88 L0.9 378 L0 378 L0 383.47 L0.9
										 383.47 L0.9 382.62 C1.09 382.95 1.34 383.2 1.64 383.36 C1.94 383.52 2.31 383.6 2.75 383.6
										 C2.81 383.6 2.88 383.6 2.95 383.59 C3.03 383.58 3.11 383.57 3.2 383.55 L3.2 382.63 Z"
									class="st8"/>
						</g>
						<g id="shape29-51" v:mID="29" v:groupContext="shape" transform="translate(9.31191,759.52) scale(1,-1)">
							<title>DejaVuSans-65</title>
							<path d="M5.07 380.96 L5.07 380.52 L0.94 380.52 C0.98 379.9 1.16 379.43 1.5 379.11 C1.83 378.78 2.29
										 378.62 2.89 378.62 C3.24 378.62 3.57 378.66 3.89 378.75 C4.22 378.83 4.54 378.96 4.86 379.13
										 L4.86 378.28 C4.54 378.14 4.21 378.04 3.87 377.97 C3.53 377.89 3.19 377.86 2.84 377.86 C1.96
										 377.86 1.27 378.11 0.76 378.62 C0.25 379.13 0 379.81 0 380.68 C0 381.58 0.24 382.29 0.73
										 382.81 C1.21 383.34 1.86 383.6 2.68 383.6 C3.42 383.6 4 383.36 4.43 382.89 C4.85 382.42
										 5.07 381.77 5.07 380.96 ZM4.17 381.22 C4.16 381.71 4.03 382.11 3.76 382.4 C3.49 382.69 3.13
										 382.84 2.69 382.84 C2.19 382.84 1.79 382.7 1.49 382.41 C1.19 382.13 1.01 381.73 0.97 381.22
										 L4.17 381.22 Z" class="st8"/>
						</g>
						<g id="shape30-53" v:mID="30" v:groupContext="shape" transform="translate(15.4643,759.52) scale(1,-1)">
							<title>DejaVuSans-63</title>
							<path d="M4.33 383.26 L4.33 382.42 C4.07 382.56 3.82 382.66 3.56 382.73 C3.31 382.8 3.05 382.84 2.79
										 382.84 C2.21 382.84 1.75 382.65 1.43 382.28 C1.11 381.92 0.95 381.4 0.95 380.73 C0.95 380.06
										 1.11 379.54 1.43 379.17 C1.75 378.8 2.21 378.62 2.79 378.62 C3.05 378.62 3.31 378.66 3.56
										 378.73 C3.82 378.79 4.07 378.9 4.33 379.04 L4.33 378.21 C4.08 378.09 3.82 378.01 3.55 377.95
										 C3.28 377.89 2.99 377.86 2.69 377.86 C1.87 377.86 1.21 378.12 0.73 378.63 C0.24 379.15 0
										 379.85 0 380.73 C0 381.62 0.24 382.32 0.73 382.83 C1.23 383.34 1.9 383.6 2.75 383.6 C3.03
										 383.6 3.3 383.57 3.56 383.51 C3.82 383.46 4.08 383.37 4.33 383.26 Z" class="st8"/>
						</g>
						<g id="shape31-55" v:mID="31" v:groupContext="shape" transform="translate(21.3529,757.522) scale(1,-1)">
							<title>DejaVuSans-69</title>
							<path d="M0 381.47 L0.9 381.47 L0.9 376 L0 376 L0 381.47 ZM0 383.6 L0.9 383.6 L0.9 382.46 L0 382.46 L0
										 383.6 Z" class="st8"/>
						</g>
						<g id="shape32-57" v:mID="32" v:groupContext="shape" transform="translate(24.0969,759.52) scale(1,-1)">
							<title>DejaVuSans-70</title>
							<path d="M0.9 378.82 L0.9 375.92 L0 375.92 L0 383.47 L0.9 383.47 L0.9 382.64 C1.09 382.96 1.33 383.21
										 1.62 383.36 C1.91 383.52 2.25 383.6 2.65 383.6 C3.32 383.6 3.86 383.34 4.27 382.81 C4.69
										 382.28 4.89 381.59 4.89 380.73 C4.89 379.87 4.69 379.18 4.27 378.65 C3.86 378.12 3.32 377.86
										 2.65 377.86 C2.25 377.86 1.91 377.94 1.62 378.1 C1.33 378.25 1.09 378.5 0.9 378.82 ZM3.96
										 380.73 C3.96 381.39 3.82 381.91 3.55 382.28 C3.28 382.66 2.91 382.85 2.43 382.85 C1.96 382.85
										 1.58 382.66 1.31 382.28 C1.04 381.91 0.9 381.39 0.9 380.73 C0.9 380.07 1.04 379.55 1.31
										 379.18 C1.58 378.8 1.96 378.61 2.43 378.61 C2.91 378.61 3.28 378.8 3.55 379.18 C3.82 379.55
										 3.96 380.07 3.96 380.73 Z" class="st8"/>
						</g>
						<g id="shape33-59" v:mID="33" v:groupContext="shape" transform="translate(30.4789,757.522) scale(1,-1)">
							<title>工作表.33</title>
							<path d="M0 381.47 L0.9 381.47 L0.9 376 L0 376 L0 381.47 ZM0 383.6 L0.9 383.6 L0.9 382.46 L0 382.46 L0
										 383.6 Z" class="st8"/>
						</g>
						<g id="shape34-61" v:mID="34" v:groupContext="shape" transform="translate(32.5838,758.098) scale(1,-1)">
							<title>DejaVuSans-74</title>
							<path d="M1.56 383.6 L1.56 382.05 L3.41 382.05 L3.41 381.35 L1.56 381.35 L1.56 378.38 C1.56 377.93 1.62
										 377.65 1.75 377.52 C1.87 377.39 2.12 377.33 2.49 377.33 L3.41 377.33 L3.41 376.58 L2.49
										 376.58 C1.8 376.58 1.32 376.71 1.05 376.97 C0.79 377.23 0.66 377.7 0.66 378.38 L0.66 381.35
										 L0 381.35 L0 382.05 L0.66 382.05 L0.66 383.6 L1.56 383.6 Z" class="st8"/>
						</g>
						<g id="shape35-63" v:mID="35" v:groupContext="shape" transform="translate(36.8359,759.52) scale(1,-1)">
							<title>DejaVuSans-61</title>
							<path d="M2.83 380.75 C2.1 380.75 1.6 380.67 1.32 380.5 C1.04 380.33 0.9 380.05 0.9 379.65 C0.9 379.33
										 1 379.08 1.21 378.89 C1.42 378.7 1.71 378.61 2.07 378.61 C2.57 378.61 2.97 378.79 3.27 379.14
										 C3.57 379.49 3.72 379.96 3.72 380.55 L3.72 380.75 L2.83 380.75 ZM4.62 381.12 L4.62 378 L3.72
										 378 L3.72 378.83 C3.52 378.5 3.26 378.25 2.95 378.1 C2.65 377.94 2.27 377.86 1.83 377.86
										 C1.27 377.86 0.83 378.02 0.5 378.33 C0.17 378.64 0 379.07 0 379.59 C0 380.21 0.21 380.67
										 0.62 380.98 C1.03 381.3 1.64 381.45 2.46 381.45 L3.72 381.45 L3.72 381.54 C3.72 381.95 3.59
										 382.27 3.31 382.5 C3.04 382.73 2.66 382.84 2.17 382.84 C1.86 382.84 1.55 382.8 1.25 382.73
										 C0.96 382.65 0.67 382.54 0.4 382.39 L0.4 383.22 C0.73 383.35 1.05 383.44 1.36 383.5 C1.67
										 383.57 1.97 383.6 2.26 383.6 C3.05 383.6 3.64 383.39 4.03 382.98 C4.43 382.58 4.62 381.95
										 4.62 381.12 Z" class="st8"/>
						</g>
						<g id="shape36-65" v:mID="36" v:groupContext="shape" transform="translate(42.6326,758.098) scale(1,-1)">
							<title>工作表.36</title>
							<path d="M1.56 383.6 L1.56 382.05 L3.41 382.05 L3.41 381.35 L1.56 381.35 L1.56 378.38 C1.56 377.93 1.62
										 377.65 1.75 377.52 C1.87 377.39 2.12 377.33 2.49 377.33 L3.41 377.33 L3.41 376.58 L2.49
										 376.58 C1.8 376.58 1.32 376.71 1.05 376.97 C0.79 377.23 0.66 377.7 0.66 378.38 L0.66 381.35
										 L0 381.35 L0 382.05 L0.66 382.05 L0.66 383.6 L1.56 383.6 Z" class="st8"/>
						</g>
						<g id="shape37-67" v:mID="37" v:groupContext="shape" transform="translate(47.227,757.522) scale(1,-1)">
							<title>工作表.37</title>
							<path d="M0 381.47 L0.9 381.47 L0.9 376 L0 376 L0 381.47 ZM0 383.6 L0.9 383.6 L0.9 382.46 L0 382.46 L0
										 383.6 Z" class="st8"/>
						</g>
						<g id="shape38-69" v:mID="38" v:groupContext="shape" transform="translate(49.6146,759.52) scale(1,-1)">
							<title>DejaVuSans-6f</title>
							<path d="M2.51 382.84 C2.03 382.84 1.65 382.65 1.37 382.28 C1.09 381.9 0.95 381.38 0.95 380.73 C0.95
										 380.08 1.09 379.56 1.36 379.18 C1.64 378.81 2.03 378.62 2.51 378.62 C2.99 378.62 3.37 378.81
										 3.65 379.19 C3.93 379.56 4.07 380.08 4.07 380.73 C4.07 381.38 3.93 381.89 3.65 382.27 C3.37
										 382.65 2.99 382.84 2.51 382.84 ZM2.51 383.6 C3.29 383.6 3.9 383.35 4.35 382.84 C4.8 382.33
										 5.02 381.63 5.02 380.73 C5.02 379.83 4.8 379.13 4.35 378.62 C3.9 378.11 3.29 377.86 2.51
										 377.86 C1.72 377.86 1.11 378.11 0.67 378.62 C0.22 379.13 0 379.83 0 380.73 C0 381.63 0.22
										 382.33 0.67 382.84 C1.11 383.35 1.72 383.6 2.51 383.6 Z" class="st8"/>
						</g>
						<g id="shape39-71" v:mID="39" v:groupContext="shape" transform="translate(56.0891,759.52) scale(1,-1)">
							<title>DejaVuSans-6e</title>
							<path d="M4.58 381.3 L4.58 378 L3.68 378 L3.68 381.27 C3.68 381.79 3.58 382.18 3.38 382.43 C3.18 382.69
										 2.88 382.82 2.47 382.82 C1.99 382.82 1.6 382.66 1.32 382.35 C1.04 382.05 0.9 381.63 0.9
										 381.09 L0.9 378 L0 378 L0 383.47 L0.9 383.47 L0.9 382.62 C1.12 382.95 1.37 383.19 1.66 383.36
										 C1.95 383.52 2.29 383.6 2.67 383.6 C3.3 383.6 3.78 383.41 4.1 383.02 C4.42 382.63 4.58 382.06
										 4.58 381.3 Z" class="st8"/>
						</g>
					</g>
					<g id="group40-73" transform="translate(84.9905,-60.8786)" v:mID="40" v:groupContext="group">
						<title>工作表.40</title>
						<g id="shape41-74" v:mID="41" v:groupContext="shape" transform="translate(2.09832E-14,759.636) scale(1,-1)">
							<title>DejaVuSans-33</title>
							<path d="M3.3 380.11 C3.77 380.01 4.14 379.8 4.4 379.48 C4.67 379.16 4.8 378.77 4.8 378.3 C4.8 377.58
										 4.55 377.02 4.06 376.63 C3.56 376.23 2.86 376.04 1.95 376.04 C1.64 376.04 1.33 376.07 1
										 376.13 C0.68 376.19 0.34 376.28 0 376.4 L0 377.35 C0.27 377.19 0.57 377.07 0.9 376.99 C1.22
										 376.91 1.56 376.87 1.92 376.87 C2.54 376.87 3.01 376.99 3.33 377.23 C3.66 377.48 3.82 377.83
										 3.82 378.3 C3.82 378.73 3.67 379.06 3.37 379.3 C3.06 379.55 2.65 379.67 2.11 379.67 L1.26
										 379.67 L1.26 380.48 L2.15 380.48 C2.63 380.48 3 380.58 3.26 380.77 C3.52 380.96 3.65 381.24
										 3.65 381.61 C3.65 381.98 3.51 382.27 3.25 382.47 C2.98 382.67 2.6 382.77 2.11 382.77 C1.84
										 382.77 1.55 382.74 1.24 382.68 C0.93 382.62 0.59 382.53 0.22 382.41 L0.22 383.29 C0.59 383.39
										 0.94 383.47 1.27 383.52 C1.6 383.57 1.91 383.6 2.2 383.6 C2.95 383.6 3.54 383.43 3.97 383.09
										 C4.41 382.75 4.63 382.29 4.63 381.71 C4.63 381.31 4.51 380.97 4.28 380.69 C4.05 380.41 3.72
										 380.22 3.3 380.11 Z" class="st8"/>
						</g>
						<g id="shape42-76" v:mID="42" v:groupContext="shape" transform="translate(6.29824,759.636) scale(1,-1)">
							<title>DejaVuSans-36</title>
							<path d="M2.6 380.22 C2.16 380.22 1.81 380.06 1.55 379.76 C1.29 379.46 1.16 379.04 1.16 378.52 C1.16
										 377.99 1.29 377.58 1.55 377.27 C1.81 376.97 2.16 376.82 2.6 376.82 C3.05 376.82 3.4 376.97
										 3.65 377.27 C3.91 377.58 4.04 377.99 4.04 378.52 C4.04 379.04 3.91 379.46 3.65 379.76 C3.4
										 380.06 3.05 380.22 2.6 380.22 ZM4.56 383.31 L4.56 382.41 C4.31 382.53 4.06 382.62 3.81 382.68
										 C3.56 382.74 3.31 382.77 3.06 382.77 C2.41 382.77 1.91 382.55 1.57 382.11 C1.23 381.67 1.03
										 381.01 0.98 380.12 C1.17 380.4 1.41 380.62 1.7 380.77 C1.99 380.92 2.31 381 2.66 381 C3.39
										 381 3.97 380.77 4.4 380.33 C4.82 379.89 5.03 379.28 5.03 378.52 C5.03 377.77 4.81 377.17
										 4.37 376.71 C3.93 376.26 3.34 376.04 2.6 376.04 C1.76 376.04 1.11 376.36 0.67 377 C0.22
										 377.65 0 378.59 0 379.82 C0 380.97 0.27 381.89 0.82 382.57 C1.37 383.26 2.1 383.6 3.02 383.6
										 C3.27 383.6 3.52 383.58 3.77 383.53 C4.02 383.48 4.29 383.4 4.56 383.31 Z" class="st8"/>
						</g>
						<g id="shape43-78" v:mID="43" v:groupContext="shape" transform="translate(13.0309,765.817) scale(1,-1)">
							<title>DejaVuSans-2e</title>
							<path d="M0 383.6 L1.03 383.6 L1.03 382.36 L0 382.36 L0 383.6 Z" class="st8"/>
						</g>
						<g id="shape44-80" v:mID="44" v:groupContext="shape" transform="translate(15.9611,759.767) scale(1,-1)">
							<title>DejaVuSans-37</title>
							<path d="M0 383.6 L4.69 383.6 L4.69 383.18 L2.04 376.31 L1.01 376.31 L3.5 382.77 L0 382.77 L0 383.6 Z"
									class="st8"/>
						</g>
						<g id="shape45-82" v:mID="45" v:groupContext="shape" transform="translate(22.0547,759.636) scale(1,-1)">
							<title>DejaVuSans-25</title>
							<path d="M6.72 379.39 C6.44 379.39 6.21 379.27 6.05 379.03 C5.89 378.78 5.81 378.45 5.81 378.02 C5.81
										 377.6 5.89 377.26 6.05 377.02 C6.21 376.78 6.44 376.66 6.72 376.66 C7 376.66 7.21 376.78
										 7.37 377.02 C7.54 377.26 7.62 377.6 7.62 378.02 C7.62 378.45 7.54 378.78 7.37 379.02 C7.21
										 379.26 7 379.39 6.72 379.39 ZM6.72 380.01 C7.23 380.01 7.64 379.83 7.94 379.47 C8.25 379.11
										 8.4 378.63 8.4 378.02 C8.4 377.41 8.25 376.93 7.94 376.57 C7.64 376.21 7.23 376.04 6.72
										 376.04 C6.2 376.04 5.79 376.21 5.48 376.57 C5.18 376.93 5.03 377.41 5.03 378.02 C5.03 378.63
										 5.18 379.12 5.49 379.47 C5.79 379.83 6.2 380.01 6.72 380.01 ZM1.68 382.98 C1.4 382.98 1.18
										 382.86 1.02 382.62 C0.86 382.37 0.78 382.04 0.78 381.62 C0.78 381.19 0.86 380.85 1.02 380.61
										 C1.17 380.37 1.4 380.25 1.68 380.25 C1.96 380.25 2.18 380.37 2.35 380.61 C2.51 380.85 2.59
										 381.19 2.59 381.62 C2.59 382.04 2.51 382.37 2.34 382.61 C2.18 382.86 1.96 382.98 1.68 382.98
										 ZM6.09 383.6 L6.87 383.6 L2.31 376.04 L1.53 376.04 L6.09 383.6 ZM1.68 383.6 C2.19 383.6
										 2.6 383.42 2.91 383.07 C3.22 382.71 3.37 382.23 3.37 381.62 C3.37 381 3.22 380.52 2.91 380.16
										 C2.61 379.81 2.2 379.63 1.68 379.63 C1.16 379.63 0.75 379.81 0.45 380.16 C0.15 380.52 0
										 381.01 0 381.62 C0 382.22 0.15 382.71 0.45 383.06 C0.76 383.42 1.17 383.6 1.68 383.6 Z"
									class="st8"/>
						</g>
					</g>
					<g id="group46-84" transform="translate(262.341,-71.0458)" v:mID="46" v:groupContext="group">
						<title>工作表.46</title>
						<g id="shape47-85" v:mID="47" v:groupContext="shape" transform="translate(1.19904E-14,757.83) scale(1,-1)">
							<title>DejaVuSans-54</title>
							<path d="M0 383.6 L6.17 383.6 L6.17 382.77 L3.58 382.77 L3.58 376.31 L2.59 376.31 L2.59 382.77 L0 382.77
										 L0 383.6 Z" class="st8"/>
						</g>
						<g id="shape48-87" v:mID="48" v:groupContext="shape" transform="translate(4.98965,759.52) scale(1,-1)">
							<title>DejaVuSans-65</title>
							<path d="M5.07 380.96 L5.07 380.52 L0.94 380.52 C0.98 379.9 1.16 379.43 1.5 379.11 C1.83 378.78 2.29
										 378.62 2.89 378.62 C3.24 378.62 3.57 378.66 3.89 378.75 C4.22 378.83 4.54 378.96 4.86 379.13
										 L4.86 378.28 C4.54 378.14 4.21 378.04 3.87 377.97 C3.53 377.89 3.19 377.86 2.84 377.86 C1.96
										 377.86 1.27 378.11 0.76 378.62 C0.25 379.13 0 379.81 0 380.68 C0 381.58 0.24 382.29 0.72
										 382.81 C1.21 383.34 1.86 383.6 2.68 383.6 C3.42 383.6 4 383.36 4.43 382.89 C4.85 382.42
										 5.07 381.77 5.07 380.96 ZM4.17 381.22 C4.16 381.71 4.03 382.11 3.76 382.4 C3.49 382.69 3.13
										 382.84 2.69 382.84 C2.19 382.84 1.79 382.7 1.49 382.41 C1.19 382.13 1.01 381.73 0.97 381.22
										 L4.17 381.22 Z" class="st8"/>
						</g>
						<g id="shape49-89" v:mID="49" v:groupContext="shape" transform="translate(11.4982,759.52) scale(1,-1)">
							<title>DejaVuSans-6d</title>
							<path d="M4.29 382.42 C4.52 382.82 4.79 383.12 5.1 383.31 C5.41 383.5 5.78 383.6 6.2 383.6 C6.77 383.6
										 7.21 383.4 7.52 383 C7.83 382.6 7.98 382.04 7.98 381.3 L7.98 378 L7.08 378 L7.08 381.27
										 C7.08 381.8 6.99 382.18 6.8 382.44 C6.62 382.69 6.33 382.82 5.95 382.82 C5.49 382.82 5.12
										 382.66 4.85 382.35 C4.58 382.05 4.44 381.63 4.44 381.09 L4.44 378 L3.54 378 L3.54 381.27
										 C3.54 381.8 3.45 382.19 3.26 382.44 C3.08 382.69 2.79 382.82 2.4 382.82 C1.94 382.82 1.58
										 382.66 1.31 382.35 C1.04 382.04 0.9 381.62 0.9 381.09 L0.9 378 L0 378 L0 383.47 L0.9 383.47
										 L0.9 382.62 C1.11 382.95 1.35 383.2 1.64 383.36 C1.93 383.52 2.27 383.6 2.66 383.6 C3.06
										 383.6 3.4 383.5 3.67 383.3 C3.95 383.1 4.16 382.8 4.29 382.42 Z" class="st8"/>
						</g>
						<g id="shape50-91" v:mID="50" v:groupContext="shape" transform="translate(21.2395,759.52) scale(1,-1)">
							<title>DejaVuSans-70</title>
							<path d="M0.9 378.82 L0.9 375.92 L0 375.92 L0 383.47 L0.9 383.47 L0.9 382.64 C1.09 382.96 1.33 383.21
										 1.62 383.36 C1.91 383.52 2.25 383.6 2.65 383.6 C3.32 383.6 3.86 383.34 4.27 382.81 C4.69
										 382.28 4.89 381.59 4.89 380.73 C4.89 379.87 4.69 379.18 4.27 378.65 C3.86 378.12 3.32 377.86
										 2.65 377.86 C2.25 377.86 1.91 377.94 1.62 378.1 C1.33 378.25 1.09 378.5 0.9 378.82 ZM3.96
										 380.73 C3.96 381.39 3.83 381.91 3.55 382.28 C3.28 382.66 2.91 382.85 2.43 382.85 C1.96 382.85
										 1.58 382.66 1.31 382.28 C1.04 381.91 0.9 381.39 0.9 380.73 C0.9 380.07 1.04 379.55 1.31
										 379.18 C1.58 378.8 1.96 378.61 2.43 378.61 C2.91 378.61 3.28 378.8 3.55 379.18 C3.83 379.55
										 3.96 380.07 3.96 380.73 Z" class="st8"/>
						</g>
						<g id="shape51-93" v:mID="51" v:groupContext="shape" transform="translate(27.2309,759.52) scale(1,-1)">
							<title>工作表.51</title>
							<path d="M5.07 380.96 L5.07 380.52 L0.94 380.52 C0.98 379.9 1.16 379.43 1.5 379.11 C1.83 378.78 2.29
										 378.62 2.89 378.62 C3.24 378.62 3.57 378.66 3.89 378.75 C4.22 378.83 4.54 378.96 4.86 379.13
										 L4.86 378.28 C4.54 378.14 4.21 378.04 3.87 377.97 C3.53 377.89 3.19 377.86 2.84 377.86 C1.96
										 377.86 1.27 378.11 0.76 378.62 C0.25 379.13 0 379.81 0 380.68 C0 381.58 0.24 382.29 0.72
										 382.81 C1.21 383.34 1.86 383.6 2.68 383.6 C3.42 383.6 4 383.36 4.43 382.89 C4.85 382.42
										 5.07 381.77 5.07 380.96 ZM4.17 381.22 C4.16 381.71 4.03 382.11 3.76 382.4 C3.49 382.69 3.13
										 382.84 2.69 382.84 C2.19 382.84 1.79 382.7 1.49 382.41 C1.19 382.13 1.01 381.73 0.97 381.22
										 L4.17 381.22 Z" class="st8"/>
						</g>
						<g id="shape52-95" v:mID="52" v:groupContext="shape" transform="translate(33.7395,759.52) scale(1,-1)">
							<title>DejaVuSans-72</title>
							<path d="M3.2 382.63 C3.1 382.69 2.99 382.73 2.87 382.76 C2.75 382.79 2.62 382.8 2.48 382.8 C1.97 382.8
										 1.58 382.63 1.31 382.3 C1.04 381.97 0.9 381.5 0.9 380.88 L0.9 378 L0 378 L0 383.47 L0.9
										 383.47 L0.9 382.62 C1.09 382.95 1.34 383.2 1.64 383.36 C1.94 383.52 2.31 383.6 2.75 383.6
										 C2.81 383.6 2.87 383.6 2.95 383.59 C3.02 383.58 3.11 383.57 3.2 383.55 L3.2 382.63 Z"
									class="st8"/>
						</g>
						<g id="shape53-97" v:mID="53" v:groupContext="shape" transform="translate(37.543,759.52) scale(1,-1)">
							<title>DejaVuSans-61</title>
							<path d="M2.83 380.75 C2.1 380.75 1.6 380.67 1.32 380.5 C1.04 380.33 0.9 380.05 0.9 379.65 C0.9 379.33
										 1 379.08 1.21 378.89 C1.42 378.7 1.71 378.61 2.07 378.61 C2.57 378.61 2.97 378.79 3.27 379.14
										 C3.57 379.49 3.72 379.96 3.72 380.55 L3.72 380.75 L2.83 380.75 ZM4.62 381.12 L4.62 378 L3.72
										 378 L3.72 378.83 C3.52 378.5 3.26 378.25 2.95 378.1 C2.65 377.94 2.27 377.86 1.83 377.86
										 C1.27 377.86 0.83 378.02 0.5 378.33 C0.17 378.64 0 379.07 0 379.59 C0 380.21 0.21 380.67
										 0.62 380.98 C1.03 381.3 1.64 381.45 2.46 381.45 L3.72 381.45 L3.72 381.54 C3.72 381.95 3.59
										 382.27 3.31 382.5 C3.04 382.73 2.66 382.84 2.17 382.84 C1.86 382.84 1.55 382.8 1.25 382.73
										 C0.96 382.65 0.67 382.54 0.4 382.39 L0.4 383.22 C0.73 383.35 1.05 383.44 1.36 383.5 C1.67
										 383.57 1.97 383.6 2.26 383.6 C3.05 383.6 3.64 383.39 4.03 382.98 C4.42 382.58 4.62 381.95
										 4.62 381.12 Z" class="st8"/>
						</g>
						<g id="shape54-99" v:mID="54" v:groupContext="shape" transform="translate(43.3396,758.098) scale(1,-1)">
							<title>DejaVuSans-74</title>
							<path d="M1.56 383.6 L1.56 382.05 L3.41 382.05 L3.41 381.35 L1.56 381.35 L1.56 378.38 C1.56 377.93 1.62
										 377.65 1.75 377.52 C1.87 377.39 2.12 377.33 2.49 377.33 L3.41 377.33 L3.41 376.58 L2.49
										 376.58 C1.8 376.58 1.32 376.71 1.05 376.97 C0.79 377.23 0.66 377.7 0.66 378.38 L0.66 381.35
										 L0 381.35 L0 382.05 L0.66 382.05 L0.66 383.6 L1.56 383.6 Z" class="st8"/>
						</g>
						<g id="shape55-101" v:mID="55" v:groupContext="shape" transform="translate(47.8418,759.52) scale(1,-1)">
							<title>DejaVuSans-75</title>
							<path d="M0 380.16 L0 383.47 L0.9 383.47 L0.9 380.19 C0.9 379.67 1 379.29 1.2 379.03 C1.4 378.77 1.71
										 378.64 2.11 378.64 C2.59 378.64 2.98 378.79 3.26 379.1 C3.54 379.41 3.68 379.83 3.68 380.37
										 L3.68 383.47 L4.58 383.47 L4.58 378 L3.68 378 L3.68 378.84 C3.46 378.51 3.21 378.26 2.92
										 378.1 C2.63 377.94 2.3 377.86 1.92 377.86 C1.29 377.86 0.81 378.05 0.49 378.44 C0.16 378.83
										 0 379.41 0 380.16 Z" class="st8"/>
						</g>
						<g id="shape56-103" v:mID="56" v:groupContext="shape" transform="translate(54.2375,759.52) scale(1,-1)">
							<title>工作表.56</title>
							<path d="M3.2 382.63 C3.1 382.69 2.99 382.73 2.87 382.76 C2.75 382.79 2.62 382.8 2.48 382.8 C1.97 382.8
										 1.58 382.63 1.31 382.3 C1.04 381.97 0.9 381.5 0.9 380.88 L0.9 378 L0 378 L0 383.47 L0.9
										 383.47 L0.9 382.62 C1.09 382.95 1.34 383.2 1.64 383.36 C1.94 383.52 2.31 383.6 2.75 383.6
										 C2.81 383.6 2.87 383.6 2.95 383.59 C3.02 383.58 3.11 383.57 3.2 383.55 L3.2 382.63 Z"
									class="st8"/>
						</g>
						<g id="shape57-105" v:mID="57" v:groupContext="shape" transform="translate(57.7676,759.52) scale(1,-1)">
							<title>工作表.57</title>
							<path d="M5.07 380.96 L5.07 380.52 L0.94 380.52 C0.98 379.9 1.16 379.43 1.5 379.11 C1.83 378.78 2.29
										 378.62 2.89 378.62 C3.24 378.62 3.57 378.66 3.89 378.75 C4.22 378.83 4.54 378.96 4.86 379.13
										 L4.86 378.28 C4.54 378.14 4.21 378.04 3.87 377.97 C3.53 377.89 3.19 377.86 2.84 377.86 C1.96
										 377.86 1.27 378.11 0.76 378.62 C0.25 379.13 0 379.81 0 380.68 C0 381.58 0.24 382.29 0.72
										 382.81 C1.21 383.34 1.86 383.6 2.68 383.6 C3.42 383.6 4 383.36 4.43 382.89 C4.85 382.42
										 5.07 381.77 5.07 380.96 ZM4.17 381.22 C4.16 381.71 4.03 382.11 3.76 382.4 C3.49 382.69 3.13
										 382.84 2.69 382.84 C2.19 382.84 1.79 382.7 1.49 382.41 C1.19 382.13 1.01 381.73 0.97 381.22
										 L4.17 381.22 Z" class="st8"/>
						</g>
					</g>
					<g id="group58-107" transform="translate(188.518,-99.6308)" v:mID="58" v:groupContext="group">
						<title>工作表.58</title>
						<g id="shape59-108" v:mID="59" v:groupContext="shape"
								transform="translate(3.44724E-14,759.767) scale(1,-1)">
							<title>DejaVuSans-31</title>
							<path d="M0.14 377.14 L1.75 377.14 L1.75 382.7 L0 382.35 L0 383.25 L1.74 383.6 L2.73 383.6 L2.73 377.14
										 L4.34 377.14 L4.34 376.31 L0.14 376.31 L0.14 377.14 Z" class="st8"/>
						</g>
						<g id="shape60-110" v:mID="60" v:groupContext="shape" transform="translate(6.02637,759.636) scale(1,-1)">
							<title>DejaVuSans-33</title>
							<path d="M3.3 380.11 C3.77 380.01 4.14 379.8 4.4 379.48 C4.67 379.16 4.8 378.77 4.8 378.3 C4.8 377.58
										 4.55 377.02 4.06 376.63 C3.56 376.23 2.86 376.04 1.95 376.04 C1.64 376.04 1.33 376.07 1
										 376.13 C0.68 376.19 0.34 376.28 0 376.4 L0 377.35 C0.27 377.19 0.57 377.07 0.9 376.99 C1.22
										 376.91 1.56 376.87 1.92 376.87 C2.54 376.87 3.01 376.99 3.33 377.23 C3.66 377.48 3.82 377.83
										 3.82 378.3 C3.82 378.73 3.67 379.06 3.37 379.3 C3.06 379.55 2.65 379.67 2.11 379.67 L1.26
										 379.67 L1.26 380.48 L2.15 380.48 C2.63 380.48 3 380.58 3.26 380.77 C3.52 380.96 3.65 381.24
										 3.65 381.61 C3.65 381.98 3.51 382.27 3.25 382.47 C2.98 382.67 2.6 382.77 2.11 382.77 C1.84
										 382.77 1.55 382.74 1.24 382.68 C0.93 382.62 0.59 382.53 0.22 382.41 L0.22 383.29 C0.59 383.39
										 0.94 383.47 1.27 383.52 C1.6 383.57 1.91 383.6 2.2 383.6 C2.95 383.6 3.54 383.43 3.97 383.09
										 C4.41 382.75 4.63 382.29 4.63 381.71 C4.63 381.31 4.51 380.97 4.28 380.69 C4.05 380.41 3.72
										 380.22 3.3 380.11 Z" class="st8"/>
						</g>
						<g id="shape61-112" v:mID="61" v:groupContext="shape" transform="translate(12.6949,765.817) scale(1,-1)">
							<title>DejaVuSans-2e</title>
							<path d="M0 383.6 L1.03 383.6 L1.03 382.36 L0 382.36 L0 383.6 Z" class="st8"/>
						</g>
						<g id="shape62-114" v:mID="62" v:groupContext="shape" transform="translate(15.5768,759.767) scale(1,-1)">
							<title>DejaVuSans-35</title>
							<path d="M0.31 383.6 L4.18 383.6 L4.18 382.77 L1.21 382.77 L1.21 380.98 C1.35 381.03 1.5 381.07 1.64
										 381.09 C1.78 381.12 1.93 381.13 2.07 381.13 C2.88 381.13 3.53 380.91 4 380.46 C4.48 380.01
										 4.72 379.41 4.72 378.65 C4.72 377.86 4.47 377.25 3.98 376.82 C3.5 376.38 2.81 376.17 1.92
										 376.17 C1.61 376.17 1.3 376.19 0.98 376.25 C0.67 376.3 0.34 376.38 0 376.48 L0 377.47 C0.29
										 377.31 0.6 377.19 0.91 377.12 C1.22 377.04 1.55 377 1.9 377 C2.46 377 2.91 377.15 3.24 377.44
										 C3.57 377.74 3.73 378.14 3.73 378.65 C3.73 379.16 3.57 379.56 3.24 379.85 C2.91 380.15 2.46
										 380.3 1.9 380.3 C1.63 380.3 1.37 380.27 1.11 380.21 C0.85 380.15 0.58 380.06 0.31 379.94
										 L0.31 383.6 Z" class="st8"/>
						</g>
						<g id="shape63-116" v:mID="63" v:groupContext="shape" transform="translate(21.7188,759.636) scale(1,-1)">
							<title>DejaVuSans-25</title>
							<path d="M6.72 379.39 C6.44 379.39 6.21 379.27 6.05 379.03 C5.89 378.78 5.81 378.45 5.81 378.02 C5.81
										 377.6 5.89 377.26 6.05 377.02 C6.21 376.78 6.44 376.66 6.72 376.66 C7 376.66 7.21 376.78
										 7.38 377.02 C7.54 377.26 7.62 377.6 7.62 378.02 C7.62 378.45 7.54 378.78 7.38 379.02 C7.21
										 379.26 7 379.39 6.72 379.39 ZM6.72 380.01 C7.23 380.01 7.64 379.83 7.94 379.47 C8.25 379.11
										 8.4 378.63 8.4 378.02 C8.4 377.41 8.25 376.93 7.94 376.57 C7.64 376.21 7.23 376.04 6.72
										 376.04 C6.2 376.04 5.79 376.21 5.48 376.57 C5.18 376.93 5.03 377.41 5.03 378.02 C5.03 378.63
										 5.18 379.12 5.49 379.47 C5.79 379.83 6.2 380.01 6.72 380.01 ZM1.68 382.98 C1.4 382.98 1.18
										 382.86 1.02 382.62 C0.86 382.37 0.78 382.04 0.78 381.62 C0.78 381.19 0.86 380.85 1.02 380.61
										 C1.18 380.37 1.4 380.25 1.68 380.25 C1.96 380.25 2.18 380.37 2.35 380.61 C2.51 380.85 2.59
										 381.19 2.59 381.62 C2.59 382.04 2.51 382.37 2.34 382.61 C2.18 382.86 1.96 382.98 1.68 382.98
										 ZM6.09 383.6 L6.87 383.6 L2.31 376.04 L1.53 376.04 L6.09 383.6 ZM1.68 383.6 C2.19 383.6
										 2.6 383.42 2.91 383.07 C3.22 382.71 3.37 382.23 3.37 381.62 C3.37 381 3.22 380.52 2.91 380.16
										 C2.61 379.81 2.2 379.63 1.68 379.63 C1.16 379.63 0.75 379.81 0.45 380.16 C0.15 380.52 0
										 381.01 0 381.62 C0 382.22 0.15 382.71 0.45 383.06 C0.76 383.42 1.17 383.6 1.68 383.6 Z"
									class="st8"/>
						</g>
					</g>
				</g>
			</g>
		</g>
		<g id="shape64-118" v:mID="64" v:groupContext="shape" transform="translate(157.912,-207.682)">
			<title>工作表.64</title>
			<path d="M1.2 335.48 C0.54 335.48 0 334.94 0 334.27 L0 327.05 C0 326.39 0.54 325.85 1.2 325.85 C1.87 325.85 2.41 326.39
						 2.41 327.05 L2.41 334.27 C2.41 334.94 1.87 335.48 1.2 335.48 ZM1.2 383.6 C1.2 383.6 1.2 383.6 1.2 383.6
						 C0.54 383.6 0 383.06 0 382.4 L0 375.18 C0 374.51 0.54 373.97 1.2 373.97 C1.87 373.97 2.41 374.51 2.41 375.18
						 L2.41 382.4 C2.41 383.06 1.87 383.6 1.2 383.6 Z" class="st9"/>
		</g>
		<g id="shape65-120" v:mID="65" v:groupContext="shape" transform="translate(138.229,-215.787)">
			<title>工作表.65</title>
			<path d="M7.28 349.22 C6.8 349.69 6.04 349.69 5.57 349.22 L0.47 344.11 C0 343.64 0 342.88 0.47 342.41 A1.20306 1.20306
						 0 0 1 2.17 342.41 L7.28 347.52 C7.75 347.99 7.75 348.75 7.28 349.22 ZM41.3 383.25 A1.20306 1.20306 0 0 1
						 39.6 383.25 L34.5 378.14 C34.03 377.67 34.03 376.91 34.5 376.44 A1.20306 1.20306 0 0 1 36.2 376.44 L41.3
						 381.55 C41.77 382.02 41.77 382.78 41.3 383.25 Z" class="st10"/>
		</g>
		<g id="shape66-122" v:mID="66" v:groupContext="shape" transform="translate(130.24,-235.354)">
			<title>工作表.66</title>
			<path d="M9.63 382.4 C9.63 383.06 9.09 383.6 8.42 383.6 L1.2 383.6 C0.54 383.6 0 383.06 0 382.4 C0 381.73 0.54 381.19
						 1.2 381.19 L8.42 381.19 C9.09 381.19 9.63 381.73 9.63 382.4 ZM57.75 382.4 C57.75 383.06 57.21 383.6 56.55
						 383.6 L49.33 383.6 C48.66 383.6 48.12 383.06 48.12 382.4 C48.12 381.73 48.66 381.19 49.33 381.19 L56.55
						 381.19 C57.21 381.19 57.75 381.73 57.75 382.4 Z" class="st9"/>
		</g>
		<g id="shape67-124" v:mID="67" v:groupContext="shape" transform="translate(138.229,-215.787)">
			<title>工作表.67</title>
			<path d="M7.28 376.44 C7.75 376.91 7.75 377.67 7.28 378.14 L2.17 383.25 A1.20306 1.20306 0 0 1 0.47 383.25 C0 382.78
						 0 382.02 0.47 381.55 L5.57 376.44 C6.04 375.97 6.8 375.97 7.28 376.44 ZM41.3 342.41 C41.3 342.41 41.3 342.41
						 41.3 342.41 C41.77 342.88 41.77 343.64 41.3 344.11 L36.2 349.22 C35.73 349.69 34.97 349.69 34.5 349.22 C34.03
						 348.75 34.03 347.99 34.5 347.52 L39.6 342.41 C40.07 341.94 40.83 341.94 41.3 342.41 Z" class="st10"/>
		</g>
		<g id="shape68-126" v:mID="68" v:groupContext="shape" transform="translate(143.475,-220.918)">
			<title>工作表.68</title>
			<path d="M15.64 383.6 C7.02 383.6 0 376.59 0 367.96 C0 359.34 7.02 352.32 15.64 352.32 C24.26 352.32 31.28 359.34 31.28
						 367.96 C31.28 376.59 24.26 383.6 15.64 383.6 Z" class="st10"/>
		</g>
		<g id="shape69-128" v:mID="69" v:groupContext="shape" transform="translate(142.272,-219.712)">
			<title>工作表.69</title>
			<path d="M16.84 349.91 C7.54 349.91 0 357.45 0 366.76 C0 376.06 7.54 383.6 16.84 383.6 C26.15 383.6 33.69 376.06 33.69
						 366.76 C33.69 357.45 26.15 349.91 16.84 349.91 ZM27.05 376.96 C24.33 379.69 20.7 381.19 16.84 381.19 C12.99
						 381.19 9.36 379.69 6.64 376.96 C3.91 374.24 2.41 370.61 2.41 366.76 C2.41 362.9 3.91 359.27 6.64 356.55
						 C9.36 353.82 12.99 352.32 16.84 352.32 C20.7 352.32 24.33 353.82 27.05 356.55 C29.78 359.27 31.28 362.9
						 31.28 366.76 C31.28 370.61 29.78 374.24 27.05 376.96 Z" class="st9"/>
		</g>
		<g id="shape71-130" v:mID="71" v:groupContext="shape" transform="translate(242.073,-111.9)">
			<title>工作表.71</title>
			<path d="M9.72 383.6 C4.36 383.6 0 379.24 0 373.88 C0 368.52 4.36 364.15 9.72 364.15 C13.76 364.15 17.42 366.7 18.83
						 370.48 C19.11 371.21 18.74 372.02 18 372.3 C17.27 372.57 16.46 372.2 16.18 371.47 C15.18 368.79 12.59 366.98
						 9.72 366.98 C5.92 366.98 2.83 370.08 2.83 373.88 C2.83 377.68 5.92 380.77 9.72 380.77 C10.5 380.77 11.14
						 381.4 11.14 382.19 C11.14 382.97 10.5 383.6 9.72 383.6 Z" class="st11"/>
		</g>
		<g id="shape72-132" v:mID="72" v:groupContext="shape" transform="translate(217.154,-102.379)">
			<title>工作表.72</title>
			<path d="M41.78 368.6 C40.33 371.04 37.68 372.66 34.64 372.66 C30.05 372.66 26.33 368.95 26.33 364.36 C26.33 361.32 27.97
						 358.66 30.41 357.21 C27.8 353.58 23.54 351.21 18.73 351.21 C10.8 351.21 4.37 357.64 4.37 365.58 C4.37 366.64
						 4.48 367.68 4.7 368.68 C1.94 369.88 0 372.63 0 375.82 C0 380.1 3.5 383.6 7.78 383.6 L38.89 383.6 C43.17
						 383.6 46.67 380.1 46.67 375.82 C46.67 372.56 44.64 369.76 41.78 368.6 Z" class="st12"/>
		</g>
		<g id="shape73-134" v:mID="73" v:groupContext="shape" transform="translate(215.74,-87.849)">
			<title>工作表.73</title>
			<path d="M40.31 370.48 L9.19 370.48 C4.12 370.48 0 366.36 0 361.29 C0 358.01 1.75 355.01 4.54 353.37 A15.891 15.891 0
						 0 1 4.37 351.04 C4.37 342.35 11.44 335.27 20.14 335.27 C25.21 335.27 30.01 337.73 32.97 341.85 A1.41413
						 1.41413 0 0 1 32.54 343.9 C30.46 345.13 29.16 347.41 29.16 349.83 C29.16 353.63 32.25 356.72 36.06 356.72
						 C38.47 356.72 40.74 355.43 41.98 353.35 A1.41394 1.41394 0 0 1 43.72 352.76 C47.23 354.18 49.5 357.53 49.5
						 361.29 C49.5 366.36 45.38 370.48 40.31 370.48 ZM20.14 338.1 C13 338.1 7.19 343.9 7.19 351.04 C7.19 351.99
						 7.3 352.93 7.5 353.85 A1.41462 1.41462 0 0 1 6.68 355.45 C4.34 356.46 2.83 358.76 2.83 361.29 C2.83 364.8
						 5.68 367.66 9.19 367.66 L40.31 367.66 C43.82 367.66 46.67 364.8 46.67 361.29 C46.67 359.06 45.52 357.04
						 43.66 355.89 C41.83 358.17 39.02 359.55 36.06 359.55 C30.69 359.55 26.33 355.19 26.33 349.83 C26.33 346.96
						 27.62 344.23 29.78 342.4 C27.34 339.68 23.83 338.1 20.14 338.1 ZM9.86 383.6 C8.89 383.6 8.18 383.48 8.1
						 383.47 A1.41404 1.41404 0 0 1 6.96 382.32 C6.88 381.86 6.23 377.77 8.59 375.42 C10.05 373.95 12.2 373.65
						 13.74 373.65 C14.71 373.65 15.42 373.77 15.5 373.78 A1.41404 1.41404 0 0 1 16.64 374.93 C16.72 375.39 17.37
						 379.47 15.01 381.83 C13.55 383.29 11.4 383.6 9.86 383.6 ZM9.65 380.77 C9.72 380.77 9.79 380.77 9.86 380.77
						 C10.69 380.77 12.19 380.65 13.01 379.83 C13.81 379.03 13.97 377.56 13.95 376.48 A9.03491 9.03491 -180 0
						 0 13.74 376.48 C12.92 376.48 11.41 376.6 10.59 377.42 C9.8 378.21 9.63 379.69 9.65 380.77 ZM22.81 383.6
						 C21.84 383.6 21.13 383.48 21.05 383.47 A1.41404 1.41404 0 0 1 19.91 382.32 C19.83 381.86 19.18 377.77 21.54
						 375.42 C23 373.95 25.15 373.65 26.69 373.65 C27.66 373.65 28.37 373.77 28.45 373.78 A1.41404 1.41404 0 0
						 1 29.59 374.93 C29.67 375.39 30.32 379.47 27.96 381.83 C26.5 383.29 24.35 383.6 22.81 383.6 ZM22.6 380.77
						 C22.67 380.77 22.74 380.77 22.81 380.77 C23.63 380.77 25.14 380.65 25.96 379.83 C26.76 379.03 26.92 377.56
						 26.9 376.48 A9.04139 9.04139 -180 0 0 26.69 376.48 C25.87 376.48 24.36 376.6 23.54 377.42 C22.74 378.21
						 22.58 379.69 22.6 380.77 ZM35.76 383.6 C34.79 383.6 34.08 383.48 34 383.47 A1.41404 1.41404 0 0 1 32.86
						 382.32 C32.78 381.86 32.13 377.77 34.49 375.42 C35.95 373.95 38.1 373.65 39.64 373.65 C40.61 373.65 41.32
						 373.77 41.4 373.78 A1.41384 1.41384 0 0 1 42.54 374.93 C42.62 375.39 43.27 379.47 40.91 381.83 C39.45 383.29
						 37.3 383.6 35.76 383.6 ZM35.55 380.77 C35.62 380.77 35.69 380.77 35.76 380.77 C36.58 380.77 38.09 380.65
						 38.91 379.83 C39.71 379.03 39.87 377.56 39.85 376.48 A9.04139 9.04139 -180 0 0 39.64 376.48 C38.81 376.48
						 37.31 376.6 36.49 377.42 C35.69 378.21 35.53 379.69 35.55 380.77 Z" class="st11"/>
		</g>
		<g id="shape76-136" v:mID="76" v:groupContext="shape" transform="translate(314.74,-140.821)">
			<title>工作表.76</title>
			<path d="M10.25 383.6 A10.8092 10.8092 0 0 1 3.77 364.14 L3.77 346.85 A6.48552 6.48552 0 0 1 16.74 346.85 L16.74 364.14
						 A10.8092 10.8092 0 0 1 10.25 383.6 ZM10.25 344.69 A2.16184 2.16184 -180 0 0 8.09 346.85 L8.09 365.31 A2.16184
						 2.16184 0 0 1 7.01 367.19 A6.48552 6.48552 -180 0 0 3.77 372.79 A6.48552 6.48552 -180 0 0 16.74 372.79 A6.48552
						 6.48552 -180 0 0 13.5 367.19 A2.16184 2.16184 0 0 1 12.42 365.31 L12.42 346.85 A2.16184 2.16184 -180 0 0
						 10.25 344.69 Z" class="st13"/>
		</g>
		<g id="shape77-138" v:mID="77" v:groupContext="shape" transform="translate(320.671,-147.306)">
			<title>工作表.77</title>
			<path d="M0 379.28 A4.32368 4.32368 -180 0 0 8.65 379.28 A4.32368 4.32368 -180 1 0 0 379.28 Z" class="st13"/>
		</g>
	</g>
</svg>
